<svg xmlns="http://www.w3.org/2000/svg" viewBox="0 0 520 420" fill="none" aria-hidden="true">
  <defs>
    <linearGradient id="hg" x1="0" y1="0" x2="1" y2="1">
      <stop offset="0" stop-color="#3b82f6"/>
      <stop offset="1" stop-color="#7c3aed"/>
    </linearGradient>
    <linearGradient id="hg2" x1="0" y1="0" x2="0" y2="1">
      <stop offset="0" stop-color="#60a5fa"/>
      <stop offset="1" stop-color="#a78bfa"/>
    </linearGradient>
    <filter id="glow" x="-20%" y="-20%" width="140%" height="140%">
      <feGaussianBlur stdDeviation="12" result="b"/>
      <feMerge><feMergeNode in="b"/><feMergeNode in="SourceGraphic"/></feMerge>
    </filter>
  </defs>
  <circle cx="420" cy="80" r="60" fill="url(#hg)" opacity=".18"/>
  <circle cx="90" cy="340" r="48" fill="#22d3ee" opacity=".12"/>
  <path d="M120 200 C200 160 280 240 360 200" stroke="url(#hg)" stroke-width="2" stroke-dasharray="6 8" opacity=".45"/>
  <path d="M160 280 C240 240 320 300 400 260" stroke="#60a5fa" stroke-width="1.5" stroke-dasharray="4 6" opacity=".35"/>
  <g filter="url(#glow)">
    <rect x="48" y="72" width="280" height="188" rx="18" fill="#0f1728" stroke="rgba(96,140,240,.35)" stroke-width="1.5"/>
    <rect x="48" y="72" width="280" height="36" rx="18" fill="rgba(59,130,246,.15)"/>
    <rect x="48" y="90" width="280" height="18" fill="#0f1728"/>
    <circle cx="68" cy="90" r="5" fill="#ff5f57"/><circle cx="84" cy="90" r="5" fill="#febc2e"/><circle cx="100" cy="90" r="5" fill="#28c840"/>
    <rect x="68" y="128" width="88" height="10" rx="5" fill="rgba(96,140,240,.35)"/>
    <rect x="68" y="150" width="200" height="8" rx="4" fill="rgba(255,255,255,.08)"/>
    <rect x="68" y="168" width="160" height="8" rx="4" fill="rgba(255,255,255,.06)"/>
    <rect x="68" y="196" width="72" height="44" rx="10" fill="rgba(59,130,246,.18)" stroke="rgba(96,140,240,.25)"/>
    <rect x="152" y="196" width="72" height="44" rx="10" fill="rgba(124,58,237,.18)" stroke="rgba(124,58,237,.25)"/>
    <rect x="236" y="196" width="72" height="44" rx="10" fill="rgba(34,211,238,.12)" stroke="rgba(34,211,238,.22)"/>
    <path d="M84 218h40M84 230h28" stroke="rgba(255,255,255,.35)" stroke-width="2" stroke-linecap="round"/>
    <path d="M168 218h40M168 230h28" stroke="rgba(255,255,255,.35)" stroke-width="2" stroke-linecap="round"/>
    <circle cx="272" cy="218" r="10" stroke="#22d3ee" stroke-width="2"/>
    <path d="M266 218l4 4 8-8" stroke="#22d3ee" stroke-width="2" stroke-linecap="round" stroke-linejoin="round"/>
  </g>
  <g transform="translate(320 220)">
    <rect x="0" y="0" width="120" height="200" rx="22" fill="#0f1728" stroke="rgba(96,140,240,.35)" stroke-width="1.5"/>
    <rect x="14" y="24" width="92" height="12" rx="6" fill="rgba(96,140,240,.3)"/>
    <rect x="14" y="48" width="92" height="8" rx="4" fill="rgba(255,255,255,.08)"/>
    <rect x="14" y="64" width="72" height="8" rx="4" fill="rgba(255,255,255,.06)"/>
    <rect x="14" y="88" width="92" height="56" rx="12" fill="rgba(124,58,237,.15)" stroke="rgba(124,58,237,.25)"/>
    <circle cx="60" cy="116" r="14" fill="url(#hg)" opacity=".85"/>
    <rect x="14" y="156" width="40" height="28" rx="8" fill="rgba(59,130,246,.2)"/>
    <rect x="62" y="156" width="44" height="28" rx="8" fill="rgba(34,211,238,.15)"/>
  </g>
  <g transform="translate(360 48)">
    <path d="M40 20 C52 8 68 8 80 20 C92 32 92 48 80 60 L60 72 L40 60 C28 48 28 32 40 20Z" fill="rgba(59,130,246,.2)" stroke="url(#hg2)" stroke-width="1.5"/>
    <path d="M52 38 L58 44 L70 30" stroke="#7dd3fc" stroke-width="2.5" stroke-linecap="round" stroke-linejoin="round"/>
  </g>
  <g transform="translate(24 280)">
    <rect x="0" y="0" width="96" height="96" rx="16" fill="rgba(59,130,246,.12)" stroke="rgba(96,140,240,.28)" stroke-width="1.5"/>
    <path d="M24 48 L40 32 L56 48 L72 32" stroke="url(#hg)" stroke-width="2.5" stroke-linecap="round" stroke-linejoin="round"/>
    <circle cx="48" cy="64" r="6" fill="#60a5fa"/>
  </g>
</svg>
